<svg width="24" height="24" viewBox="0 0 24 24" fill="none" xmlns="http://www.w3.org/2000/svg">
    <g clip-path="url(#clip0_290_2022)">
        <path d="M17.4 7.65955e-08C16.34 -0.000168653 15.2956 0.27843 14.3556 0.812145C13.4155 1.34586 12.6074 2.11893 12 3.06572C11.3926 2.11893 10.5845 1.34586 9.64444 0.812145C8.70435 0.27843 7.65998 -0.000168653 6.6 7.65955e-08C4.84957 7.65955e-08 3.17084 0.75788 1.9331 2.10692C0.695355 3.45595 0 5.28564 0 7.19346C0 14.6734 7.8 20.8453 12 24C16.2 20.8453 24 14.6734 24 7.19346C24 6.2488 23.8293 5.31339 23.4976 4.44064C23.1659 3.56789 22.6798 2.77489 22.0669 2.10692C21.454 1.43894 20.7265 0.909075 19.9257 0.54757C19.125 0.186064 18.2667 7.65955e-08 17.4 7.65955e-08Z" fill="#FF0000" />
    </g>
    <defs>
        <clipPath id="clip0_290_2022">
        <rect width="24" height="24" fill="white" />
        </clipPath>
    </defs>
</svg>